<svg xmlns="http://www.w3.org/2000/svg" viewBox="-45 0 294 303.8">
  <g>
    <path fill="#3770A0" d="M166.6436 119.60208h-20.78071c-2.10294.0172-3.79583 1.68176-3.79583 3.95449v13.49755c0 .99923-.99427 1.97931-2.00239 1.97931-1.00815 0-1.9967-.98008-1.9967-1.97931v-1.1711c.003-19.89722-.25537-33.57989-.25537-45.934478 0-7.87776-21.24907-16.03835-34.09501-16.00718-12.845933.0312-34.09501 8.1297-34.09501 17.17828v20.412028c.0173 2.08464 1.696557 3.76329 3.989257 3.76329 9.94255 0 19.1775-.15355 28.243613-.0332 1.99662 0 4.02791 1.97825 4.02791 3.99185V183.14949c0 1.97916 1.99684 3.95862 3.99341 3.95862h56.76683c9.12957 0 17.6531-20.70086 17.621-33.71701-.0321-13.01616-8.49292-33.78898-17.621-33.78898z"></path>
    <circle cx="84.777267" cy="93.94384" r="6.9395089" fill="#FFFFFF"></circle>
    <g transform="rotate(-180 6.134072 140.65693)">
      <path fill="#FFCF3E" d="M-28.453764 94.177867h-20.780708c-2.102941.0172-3.795832 1.681761-3.795832 3.954492v13.497551c0 .99923-.99427 1.97931-2.00239 1.97931-1.00815 0-1.9967-.98008-1.9967-1.97931v-1.1711c.003-19.897223-.25537-33.579893-.25537-45.934481 0-7.87776-21.249069-16.03835-34.09501-16.00718-12.845936.0312-34.095006 8.1297-34.095006 17.17828v20.412027c.0173 2.084642 1.69655 3.763291 3.98925 3.763291 9.94255 0 19.1775-.153549 28.243616-.0332 1.996619 0 4.02791 1.97825 4.02791 3.991851v63.895882c0 1.97916 1.99684 3.95862 3.99341 3.95862h56.76683c9.129568 0 17.653098-20.70086 17.620998-33.71701-.0321-13.01616-8.49292-33.788983-17.620998-33.788983z"></path>
      <circle cx="-110.3201" cy="68.51963" r="6.9395089" fill="#fff"></circle>
    </g>
  </g>
</svg>